<svg width="80" height="80" viewBox="0 0 80 80" fill="none" xmlns="http://www.w3.org/2000/svg">
<path d="M43.7509 7.84931C44.7118 7.74629 45.8253 7.94691 46.7509 8.20966C48.8452 8.80407 50.5467 10.0771 51.5566 11.8942C52.6058 13.7568 52.8072 15.934 52.1152 17.9362C51.2363 20.4057 49.3521 21.6475 46.998 22.7888L47.0244 29.9909C48.7066 30.4688 50.3436 31.0098 51.8711 31.8347C55.3819 33.7309 57.7832 36.9288 58.79 40.5671C59.8543 44.3822 59.2491 48.4362 57.1074 51.8366C55.143 54.9188 52.0105 57.1951 48.2607 58.0671C43.3623 59.2075 39.2081 57.9725 34.998 55.6403C33.137 57.4944 31.2981 59.3695 29.4834 61.2644C30.2947 63.0475 30.5634 64.9183 30.0254 66.8132C29.4994 68.6657 28.1062 70.2527 26.3242 71.1911C24.3274 72.2441 22.0524 72.436 19.8632 71.8522C17.6906 71.2729 15.8645 70.0188 14.8027 68.1345C13.7576 66.282 13.6691 64.1112 14.3466 62.1335C15.1175 59.8856 16.6879 58.5007 18.8955 57.4733C21.2714 56.6074 23.2354 56.8921 25.5547 57.6706C27.4857 55.7773 29.3039 53.7886 31.2548 51.9118C29.1107 47.9939 28.4155 44.6568 29.5302 40.3395C27.1029 39.2837 24.7627 38.0544 22.3339 36.9968C21.0361 38.2556 19.4498 39.1187 17.5869 39.4108C15.3652 39.7593 13.0224 39.1945 11.1963 37.9792C9.38697 36.7579 8.19663 34.8965 7.90426 32.8327C7.60423 30.8313 8.16924 28.6252 9.54489 27.0456C10.9633 25.4167 13.1649 24.4345 15.3877 24.2175C17.5719 24.0192 19.7515 24.6398 21.4433 25.9421C23.6065 27.6302 24.2308 29.7282 24.4931 32.2292C26.7954 33.5444 29.4321 34.5588 31.831 35.7331C34.9521 32.2952 37.232 31.2106 41.7812 29.904L41.7851 22.7565C40.9708 22.4529 40.1578 22.0834 39.4482 21.5974C37.6534 20.3603 36.4746 18.4967 36.1836 16.4343C35.9145 14.3824 36.5364 12.3146 37.9111 10.6921C39.4134 8.93612 41.4215 8.1366 43.7509 7.84931ZM53.7802 43.405C53.3174 38.4877 48.6811 34.8418 43.4013 35.2419C38.0744 35.6458 34.1181 40.0123 34.5849 44.9724C35.0519 49.9342 39.7637 53.5926 45.0849 53.1267C50.3589 52.6635 54.243 48.3217 53.7802 43.405Z" fill="white"/>
<path d="M69.043 31.4638C69.2682 31.4534 69.4868 31.4504 69.7109 31.4806C70.4112 31.5752 71.1012 31.8903 71.4869 32.4632C71.8961 33.071 71.9521 33.8804 72.0081 34.5845C72.2858 38.0692 72.0795 41.6943 72.0786 45.1913C72.0778 48.0472 72.4175 51.9199 71.8483 54.6702C71.6693 55.5346 71.054 55.948 70.3172 56.4157C70.0366 56.4474 69.7429 56.4836 69.4599 56.4685C68.8276 56.4353 68.2287 56.1728 67.8198 55.7232C67.4155 55.2782 67.4272 54.385 67.3914 53.8268C67.1345 49.8184 67.3517 45.6817 67.3556 41.6611C67.3579 39.3764 67.0208 35.0028 67.5363 32.9639C67.7207 32.2345 68.4264 31.8522 69.043 31.4638Z" fill="white"/>
<path d="M62.5887 37.0625C63.3475 37.1928 64.0188 37.4585 64.461 38.0725C65.143 39.0198 65.1614 48.3006 64.8198 49.6252C64.6329 50.3493 63.9605 50.7023 63.323 51.0508C62.593 51.0101 61.6333 50.9498 61.1457 50.3599C60.4202 49.4834 60.4803 39.6197 60.8933 38.3827C61.1333 37.664 61.9263 37.3602 62.5887 37.0625Z" fill="white"/>
</svg>
